<svg xmlns="http://www.w3.org/2000/svg" xmlns:xlink="http://www.w3.org/1999/xlink" viewBox="0 0 440.89 369.13"><defs><style>.cls-1{isolation:isolate;}.cls-2{fill:#b8bd6f;}.cls-18,.cls-2,.cls-24,.cls-26,.cls-31,.cls-35,.cls-39,.cls-41,.cls-42,.cls-47,.cls-6{mix-blend-mode:multiply;}.cls-13,.cls-18,.cls-2,.cls-38{opacity:0.4;}.cls-3{fill:#321638;}.cls-4{fill:#f9f3df;}.cls-35,.cls-5,.cls-6{fill:#d9e5de;}.cls-18,.cls-26,.cls-31,.cls-7{fill:#5e2458;}.cls-8{fill:url(#linear-gradient);}.cls-9{fill:url(#linear-gradient-2);}.cls-10{fill:url(#linear-gradient-3);}.cls-11,.cls-20,.cls-30,.cls-41{fill:#dbbae5;}.cls-11,.cls-12,.cls-23,.cls-24,.cls-25,.cls-31,.cls-35,.cls-36{opacity:0.5;}.cls-13,.cls-34{fill:none;stroke-miterlimit:10;stroke-width:0.5px;}.cls-13{stroke:#f9f3df;}.cls-14,.cls-15,.cls-16,.cls-36,.cls-38{fill:#fff;}.cls-15{opacity:0.1;}.cls-16,.cls-20,.cls-26,.cls-47{opacity:0.2;}.cls-17{fill:url(#linear-gradient-4);}.cls-19{fill:url(#linear-gradient-5);}.cls-21{fill:url(#linear-gradient-6);}.cls-22{fill:#f8eb65;}.cls-23{fill:#ff9646;}.cls-24{fill:#ffb991;}.cls-25,.cls-39,.cls-43{fill:#bd385a;}.cls-27{fill:url(#linear-gradient-7);}.cls-28{fill:url(#linear-gradient-8);}.cls-29{fill:#906da9;}.cls-32{fill:url(#linear-gradient-9);}.cls-33{fill:url(#linear-gradient-10);}.cls-34{stroke:#f8eb65;}.cls-37{fill:url(#linear-gradient-11);}.cls-39,.cls-42{opacity:0.3;}.cls-40{fill:url(#linear-gradient-12);}.cls-44{fill:url(#linear-gradient-13);}.cls-45{fill:url(#linear-gradient-14);}.cls-46{fill:url(#linear-gradient-15);}.cls-47{fill:url(#linear-gradient-16);}</style><linearGradient id="linear-gradient" x1="85.93" y1="46.76" x2="336.3" y2="297.13" gradientUnits="userSpaceOnUse"><stop offset="0" stop-color="#906da9"/><stop offset="0.28" stop-color="#8e66a0"/><stop offset="0.74" stop-color="#875187"/><stop offset="1" stop-color="#834476"/></linearGradient><linearGradient id="linear-gradient-2" x1="83.09" y1="117.07" x2="112.14" y2="146.13" gradientUnits="userSpaceOnUse"><stop offset="0" stop-color="#dbbae5"/><stop offset="0.21" stop-color="#d2b1de"/><stop offset="0.55" stop-color="#ba98ca"/><stop offset="0.98" stop-color="#926fab"/><stop offset="1" stop-color="#906da9"/></linearGradient><linearGradient id="linear-gradient-3" x1="79.74" y1="133.83" x2="115.49" y2="133.83" gradientUnits="userSpaceOnUse"><stop offset="0" stop-color="#834476"/><stop offset="0.06" stop-color="#804274"/><stop offset="0.64" stop-color="#672c5f"/><stop offset="1" stop-color="#5e2458"/></linearGradient><linearGradient id="linear-gradient-4" x1="275.4" y1="13.33" x2="441.76" y2="13.33" gradientTransform="matrix(0.9, 0.44, -0.38, 0.77, 50.69, -134.47)" xlink:href="#linear-gradient-3"/><linearGradient id="linear-gradient-5" x1="329.09" y1="77.46" x2="387.76" y2="18.79" gradientTransform="translate(54.63 -141.54) rotate(26.09)" xlink:href="#linear-gradient-3"/><linearGradient id="linear-gradient-6" x1="406.04" y1="89.43" x2="411.35" y2="89.43" gradientUnits="userSpaceOnUse"><stop offset="0.01" stop-color="#ff9646"/><stop offset="0.15" stop-color="#fd8d43"/><stop offset="0.38" stop-color="#f77439"/><stop offset="0.68" stop-color="#ee4b2a"/><stop offset="1" stop-color="#e21717"/></linearGradient><linearGradient id="linear-gradient-7" x1="102.04" y1="45.53" x2="140.07" y2="45.53" xlink:href="#linear-gradient-2"/><linearGradient id="linear-gradient-8" x1="160.03" y1="246.46" x2="331.63" y2="246.46" xlink:href="#linear-gradient-2"/><linearGradient id="linear-gradient-9" x1="196.27" y1="135.88" x2="241.04" y2="180.65" xlink:href="#linear-gradient-6"/><linearGradient id="linear-gradient-10" x1="203.71" y1="143.33" x2="233.59" y2="173.2" xlink:href="#linear-gradient-6"/><linearGradient id="linear-gradient-11" x1="73.68" y1="236.48" x2="90.4" y2="253.2" gradientUnits="userSpaceOnUse"><stop offset="0" stop-color="#906da9"/><stop offset="0.24" stop-color="#9471ac"/><stop offset="0.46" stop-color="#9f7cb5"/><stop offset="0.68" stop-color="#b18fc4"/><stop offset="0.89" stop-color="#cbaad8"/><stop offset="1" stop-color="#dbbae5"/></linearGradient><linearGradient id="linear-gradient-12" x1="95.96" y1="322.6" x2="129.79" y2="322.6" xlink:href="#linear-gradient-2"/><linearGradient id="linear-gradient-13" x1="286.32" y1="345.6" x2="406.2" y2="345.6" xlink:href="#linear-gradient"/><linearGradient id="linear-gradient-14" x1="323.41" y1="321.24" x2="416.54" y2="321.24" xlink:href="#linear-gradient"/><linearGradient id="linear-gradient-15" x1="316.56" y1="300" x2="409.69" y2="300" xlink:href="#linear-gradient-2"/><linearGradient id="linear-gradient-16" x1="324.9" y1="331.44" x2="398.67" y2="331.44" xlink:href="#linear-gradient"/></defs><g class="cls-1"><g id="OBJECTS"><path class="cls-2" d="M350.86,324.37c0,7.66-64.73,13.87-144.58,13.87S61.69,332,61.69,324.37s64.73-13.87,144.59-13.87S350.86,316.71,350.86,324.37Z"/><path class="cls-3" d="M381.53,93.43c-2,4-22,1.08-40.18-8.7S310.06,66,313.29,60s20.57-2.93,38.72,6.85S388.1,80.63,381.53,93.43Z"/><polygon class="cls-4" points="259.97 318.67 211.71 318.67 210.81 318.67 162.54 318.67 148.09 333.4 210.81 333.4 211.71 333.4 274.42 333.4 259.97 318.67"/><rect class="cls-5" x="148.09" y="333.4" width="126.33" height="3.73"/><polygon class="cls-5" points="249.57 278.29 211.48 278.29 211.03 278.29 172.94 278.29 166.71 321.36 211.03 321.36 211.48 321.36 255.81 321.36 249.57 278.29"/><polygon class="cls-6" points="170.63 294.29 251.89 294.29 249.09 277.39 173.2 277.39 170.63 294.29"/><path class="cls-4" d="M374,249.84V75.45a12.67,12.67,0,0,0-12.68-12.68H61A12.68,12.68,0,0,0,48.27,75.45V249.84Z"/><rect class="cls-7" x="56.04" y="69.56" width="310.14" height="206.55" rx="8.96"/><rect class="cls-8" x="57.71" y="69.79" width="306.8" height="204.32" rx="8.87"/><rect class="cls-7" x="56.54" y="244.46" width="309.37" height="2.7"/><path class="cls-4" d="M48.27,246.46v16.06A21.13,21.13,0,0,0,69.4,283.64H352.82A21.13,21.13,0,0,0,374,262.52V246.46Z"/><path class="cls-4" d="M121,131.6a23.39,23.39,0,1,1-23.39-23.39A23.39,23.39,0,0,1,121,131.6Z"/><path class="cls-9" d="M118.16,131.6a20.55,20.55,0,1,1-20.55-20.54A20.55,20.55,0,0,1,118.16,131.6Z"/><path class="cls-10" d="M101.57,128.26a7,7,0,1,0-7.91,0,19.51,19.51,0,0,0-13.92,13.47,20.55,20.55,0,0,0,35.75,0A19.53,19.53,0,0,0,101.57,128.26Z"/><path class="cls-11" d="M132.84,93.27a6.91,6.91,0,0,1-6.91,6.91H69.3a6.91,6.91,0,0,1-6.91-6.91h0a6.9,6.9,0,0,1,6.91-6.9h56.63a6.9,6.9,0,0,1,6.91,6.9Z"/><rect class="cls-11" x="67.46" y="163.18" width="60.3" height="4.51"/><rect class="cls-11" x="67.46" y="173.98" width="60.3" height="4.51"/><g class="cls-12"><rect class="cls-11" x="68.16" y="188.37" width="59.58" height="1.92"/><rect class="cls-11" x="68.16" y="192.96" width="59.58" height="1.92"/><rect class="cls-11" x="68.16" y="200.15" width="59.58" height="1.92"/><rect class="cls-11" x="68.16" y="204.73" width="59.58" height="1.91"/></g><g class="cls-12"><rect class="cls-11" x="68.16" y="211.97" width="59.58" height="1.92"/><rect class="cls-11" x="68.16" y="216.55" width="59.58" height="1.92"/><rect class="cls-11" x="68.16" y="223.74" width="59.58" height="1.92"/><rect class="cls-11" x="68.16" y="228.32" width="59.58" height="1.91"/></g><rect class="cls-13" x="309.01" y="93.71" width="47.56" height="129.19" rx="9.41"/><rect class="cls-11" x="315.11" y="124.1" width="34.02" height="21.98" rx="3.55"/><polyline class="cls-14" points="327.8 128.06 327.8 141.39 340.45 134.72 328.07 128.06"/><path class="cls-11" d="M346.91,161.77H320a3.55,3.55,0,0,0-3.55,3.55V180.2a3.54,3.54,0,0,0,3.55,3.55h19.6l6.1,8.76v-8.76h1.22a3.54,3.54,0,0,0,3.55-3.55V165.32A3.55,3.55,0,0,0,346.91,161.77Z"/><path class="cls-14" d="M326.89,171.48a1.7,1.7,0,1,1-1.7-1.7A1.7,1.7,0,0,1,326.89,171.48Z"/><path class="cls-14" d="M335.14,171.48a1.7,1.7,0,1,1-1.69-1.7A1.7,1.7,0,0,1,335.14,171.48Z"/><path class="cls-14" d="M343.4,171.48a1.7,1.7,0,1,1-1.69-1.7A1.7,1.7,0,0,1,343.4,171.48Z"/><path class="cls-15" d="M134.15,75.26H70.54a9.46,9.46,0,0,0-9.46,9.46v49.52Z"/><polygon class="cls-16" points="61.08 148.16 61.08 182.3 134.06 126.06 134.15 90.92 61.08 148.16"/><polygon class="cls-15" points="61.08 190.68 61.08 224.83 134.06 168.58 134.15 133.45 61.08 190.68"/><polygon class="cls-17" points="291.48 0 351.59 66.38 440.89 73.17 384.62 1.06 291.48 0"/><path class="cls-18" d="M385.18,1.78c-.48,1.23-1,2.45-1.59,3.66C373.9,25.23,351.16,35.83,324.08,36l27.51,30.38,89.3,6.79Z"/><path class="cls-19" d="M368.38,33.93c-18.84-9.22-36-12.87-38.31-8.14L312.2,61.28c9.86,1.35,19.29,1.93,37.13,11.19,13.76,7.13,26.73,14.11,32.2,21L398.3,59.2C400.62,54.47,387.22,43.16,368.38,33.93Z"/><path class="cls-18" d="M368.38,33.93c-16.63-8.14-31.93-11.93-36.89-9.47a56.73,56.73,0,0,1,15.92,5.13c19.2,9.4,29.84,27.09,23.77,39.5-2.41,4.91-6.29,7.09-12.24,8.77,10.29,5.48,19.09,10.69,22.59,15.57L398.3,59.2C400.61,54.47,387.22,43.16,368.38,33.93Z"/><path class="cls-20" d="M331.56,55.27a5.45,5.45,0,0,1-7.3,2.5h0a5.45,5.45,0,0,1-2.5-7.3l8.65-17.67a5.47,5.47,0,0,1,7.31-2.51h0a5.46,5.46,0,0,1,2.5,7.31Z"/><polygon class="cls-21" points="411.35 150.33 410.81 31.36 408.34 28.52 406.05 28.52 408.34 31.46 408.34 150.33 411.35 150.33"/><polygon class="cls-22" points="407.42 152.39 396.14 179.13 399.84 180.5 409.64 152.68 407.42 152.39"/><polygon class="cls-23" points="398.82 180.12 408.77 152.56 409.64 152.68 399.84 180.5 398.82 180.12"/><polygon class="cls-22" points="408.57 152.71 403.42 181.27 407.32 181.8 410.8 152.51 408.57 152.71"/><polygon class="cls-23" points="406.25 181.66 409.94 152.59 410.8 152.51 407.32 181.8 406.25 181.66"/><polygon class="cls-22" points="409.56 152.94 412.14 181.85 416.04 181.32 411.66 152.16 409.56 152.94"/><polygon class="cls-23" points="414.96 181.47 410.85 152.46 411.66 152.16 416.04 181.32 414.96 181.47"/><polygon class="cls-22" points="409.81 152.49 419.66 179.79 423.3 178.28 411.63 151.19 409.81 152.49"/><polygon class="cls-23" points="422.3 178.7 410.93 151.69 411.63 151.19 423.3 178.28 422.3 178.7"/><path class="cls-24" d="M406,155.68l.57-1.12,5.91-1.31,1.51,3.34s-.54.82-3.15,1.06S406,155.68,406,155.68Z"/><path class="cls-22" d="M415.45,150.33a6.25,6.25,0,1,1-6.25-6.25A6.25,6.25,0,0,1,415.45,150.33Z"/><path class="cls-23" d="M411.31,144.45a6.37,6.37,0,0,1,.33,2,6.25,6.25,0,0,1-6.25,6.25,6.16,6.16,0,0,1-2.11-.37,6.25,6.25,0,1,0,8-7.89Z"/><polygon class="cls-25" points="410.81 31.36 411.31 144.46 409.95 144.46 409.95 31.36 410.81 31.36"/><path class="cls-26" d="M299.81,237.32V62.89l-155.64-1V230.13L144,245.45a19,19,0,0,0,16.77,18.86v.15H316.54a19,19,0,0,0,19-19v-8.13H299.81Z"/><path class="cls-27" d="M140.07,62.69V47.37a19,19,0,0,0-38,0V62.69Z"/><path class="cls-14" d="M279.25,28.52v-.16h-158a19,19,0,0,1,19,19v178l-.18,15.32a19,19,0,0,0,16.77,18.87v.15h139V47.37A19,19,0,0,0,279.25,28.52Z"/><path class="cls-28" d="M312.62,232.89H179.05V241a19,19,0,0,1-19,19H312.62a19,19,0,0,0,19-19v-8.12Z"/><rect class="cls-29" x="154.5" y="49.49" width="127.94" height="5.82"/><rect class="cls-30" x="160.4" y="69.74" width="116.14" height="3.98"/><rect class="cls-30" x="160.4" y="82.44" width="116.14" height="3.98"/><rect class="cls-30" x="160.4" y="95.14" width="116.14" height="3.98"/><rect class="cls-30" x="160.4" y="107.84" width="116.14" height="3.97"/><polygon class="cls-7" points="206.85 161.41 196.31 184.42 182.1 215.41 193.47 210.16 200.44 220.91 216.35 163.66 206.85 161.41"/><polygon class="cls-7" points="230.08 161.41 254.83 215.41 243.47 210.16 236.5 220.91 220.58 163.66 230.08 161.41"/><path class="cls-31" d="M197,183s1.07,2.45,2.25,3,3.43-.37,4.68,0,.71,2.5,2.63,3.66c.62.38,2.61,0,2.61,0l3.1-11.16-11.84-2.87Z"/><path class="cls-31" d="M227.83,189.73s1,.26,2.83-1.08c1.5-1.12,1.25-2.5,2.13-2.75s3.14.32,4.92,0c1.27-.22,2.39-2.46,2.1-3.27-.58-1.63-2.52-5.49-2.52-5.49l-11.43,5.49Z"/><path class="cls-32" d="M250.69,158.27c0-1.64-2.87-3-3.12-4.59s2.05-3.8,1.56-5.32-3.66-2-4.38-3.39.76-4.24-.18-5.53-4.08-.74-5.21-1.88-.58-4.26-1.88-5.21-4.1.56-5.53-.18-1.86-3.88-3.4-4.38-3.71,1.81-5.31,1.55-3-3.11-4.59-3.11-3,2.87-4.58,3.11-3.81-2-5.32-1.55-2,3.66-3.39,4.38-4.25-.76-5.54.18-.74,4.08-1.87,5.21-4.27.58-5.22,1.88.56,4.1-.17,5.53-3.88,1.86-4.38,3.39,1.8,3.72,1.55,5.32-3.11,2.95-3.11,4.59,2.86,3,3.11,4.58-2,3.81-1.55,5.32,3.65,2,4.38,3.39-.77,4.24.17,5.54,4.08.73,5.22,1.87.57,4.27,1.87,5.21,4.1-.55,5.54.18,1.85,3.88,3.39,4.38,3.71-1.8,5.32-1.55,3,3.11,4.58,3.11,3-2.86,4.59-3.11,3.8,2,5.31,1.55,2-3.65,3.4-4.38,4.24.76,5.53-.18.74-4.08,1.88-5.21,4.26-.57,5.21-1.87-.56-4.1.18-5.54,3.88-1.85,4.38-3.39-1.81-3.72-1.56-5.32S250.69,159.9,250.69,158.27Z"/><path class="cls-22" d="M242.65,158.27a24,24,0,1,1-24-24A24,24,0,0,1,242.65,158.27Z"/><path class="cls-33" d="M239.78,158.27a21.13,21.13,0,1,1-21.13-21.13A21.13,21.13,0,0,1,239.78,158.27Z"/><path class="cls-34" d="M231.53,158.27a12.88,12.88,0,1,1-12.88-12.88A12.88,12.88,0,0,1,231.53,158.27Z"/><path class="cls-2" d="M85.71,347c0,7.45-19.19,13.49-42.86,13.49S0,354.49,0,347s19.19-13.49,42.85-13.49S85.71,339.59,85.71,347Z"/><path class="cls-5" d="M1.38,334.47v13.34c0,3.94,15.23,7.13,34,7.13s34-3.19,34-7.13V334.47Z"/><path class="cls-4" d="M69.39,334.47c0,3.93-15.22,7.13-34,7.13s-34-3.2-34-7.13,15.23-7.13,34-7.13S69.39,330.53,69.39,334.47Z"/><path class="cls-35" d="M26.55,350.51a92.55,92.55,0,0,1-25.17-3.24v.54c0,3.94,15.23,7.13,34,7.13s34-3.19,34-7.13V334.47h-.06C68.13,343.41,49.44,350.51,26.55,350.51Z"/><path class="cls-5" d="M19.23,220.82V330.87h0c0,.32,2,.58,4.39.58s4.39-.26,4.39-.59h0v-110a22.85,22.85,0,0,1,19.48-22.56V189.4A31.65,31.65,0,0,0,19.23,220.82Z"/><path class="cls-35" d="M47.48,198.26v-4.53c-10.24,2.25-23.06,9.76-24,27.09v110h0c0,.22-.85.4-2.12.51.66.05,1.43.08,2.26.08,2.42,0,4.39-.26,4.39-.59h0v-110C28,209.91,35.84,200.38,47.48,198.26Z"/><path class="cls-5" d="M69.58,192.65a11.3,11.3,0,0,1-5.25,15.1l-.34.16a11.3,11.3,0,0,1-15.1-5.26L41.76,187.9A11.31,11.31,0,0,1,47,172.81l.34-.16a11.3,11.3,0,0,1,15.1,5.26Z"/><path class="cls-35" d="M69.58,192.65l-7.12-14.74A11.3,11.3,0,0,0,57.94,173c.05.56.08,1.14.08,1.71,0,8.94-6.11,16.32-14.08,17.67l5,10.23A11.3,11.3,0,0,0,64,207.91l.34-.16A11.3,11.3,0,0,0,69.58,192.65Z"/><path class="cls-36" d="M49.75,173.23c.19.37-.82,1.28-2.27,2s-2.77,1-3,.67.83-1.27,2.27-2S49.56,172.87,49.75,173.23Z"/><path class="cls-35" d="M67.31,194.71a2.69,2.69,0,0,1-1.25,3.59h0A2.68,2.68,0,0,1,62.48,197l-8.09-16.81a2.68,2.68,0,0,1,1.26-3.58h0a2.68,2.68,0,0,1,3.58,1.25Z"/><path class="cls-5" d="M104.22,216.79c-8-12.75-22.07-23.48-35.3-25.54-4.27-.66-7.17.73-11.43,2.79-5.17,3-7.15,3.46-9.28,7.21-6.61,11.64-6.92,29.31-1.93,43.54,1.9,5.42,2.51,6.38,6.79,14l29-14,29-14C107.66,222.72,107.29,221.65,104.22,216.79Z"/><path class="cls-35" d="M104.22,216.79c-7.07-11.21-18.76-20.85-30.48-24.42a30.62,30.62,0,0,1,.52,5.6c0,16.64-13.35,30.48-31,33.45a61.83,61.83,0,0,0,3,13.37c1.9,5.42,2.51,6.38,6.79,14l29-14,29-14C107.66,222.72,107.29,221.65,104.22,216.79Z"/><path class="cls-37" d="M111,230.84c1.34,2.77-10.55,11.29-26.55,19s-30,11.75-31.39,9,10.54-11.29,26.54-19S109.67,228.07,111,230.84Z"/><path class="cls-38" d="M57.06,216.38c.38,1.37-.72,2.87-2.46,3.36h0c-1.74.49-3.47-.22-3.85-1.58l-1.88-6.67c-.38-1.37.72-2.87,2.46-3.36h0c1.75-.49,3.47.22,3.85,1.59Z"/><path class="cls-29" d="M37.41,330.53v6.19h0a5,5,0,0,0,3.22.85c1.74,0,3.17-.59,3.25-.85h0v-6.19Z"/><path class="cls-39" d="M42,330.53a4.44,4.44,0,0,1,.11,1,5,5,0,0,1-4.68,4.75v.47h0a5,5,0,0,0,3.22.85c1.74,0,3.17-.59,3.25-.85h0v-6.19Z"/><path class="cls-30" d="M43.91,330.53c0,.32-1.47.59-3.27.59s-3.28-.27-3.28-.59,1.47-.59,3.28-.59S43.91,330.2,43.91,330.53Z"/><path class="cls-2" d="M132.93,363.34c0,3.2-7.39,5.79-16.51,5.79s-16.51-2.59-16.51-5.79,7.39-5.78,16.51-5.78S132.93,360.15,132.93,363.34Z"/><path class="cls-5" d="M130.51,322.6H95.25s-.9,17.61,1.11,27.61c.76,3.82,3.25,12.53,3.27,12.61.64,2.7,4.86,5.28,13.25,5.28s12.61-2.58,13.25-5.28c0-.08,2.5-8.79,3.27-12.61C131.41,340.21,130.51,322.6,130.51,322.6Z"/><path class="cls-35" d="M130.51,322.6h-4.75a36,36,0,0,1,.44,5.55c0,16.82-11.62,30.45-25.94,30.45-.61,0-1.22,0-1.82-.08.64,2.39,1.18,4.27,1.19,4.3.64,2.7,4.86,5.28,13.25,5.28s12.61-2.58,13.25-5.28c0-.08,2.5-8.79,3.27-12.61C131.41,340.21,130.51,322.6,130.51,322.6Z"/><path class="cls-4" d="M130.58,322.48c0,1.34-7.91,3.17-17.66,3.17s-17.66-1.83-17.66-3.17,7.83-2.8,17.58-2.8S130.58,321.13,130.58,322.48Z"/><path class="cls-40" d="M129.79,322.46c0,.75-7.32,2.61-16.83,2.61s-17-1.94-17-2.61c0-1,7.41-2.33,16.92-2.33S129.79,321.45,129.79,322.46Z"/><path class="cls-41" d="M127.71,323.22c0,.55-6.34,1.92-14.56,1.92s-14.71-1.43-14.71-1.92c0-.75,6.41-1.72,14.63-1.72S127.71,322.47,127.71,323.22Z"/><path class="cls-29" d="M132,299.77c-1.18-1.66-6.42-1.83-10.4,1.16-2.15,1.63-4.79,6.11-6.42,8.73L115,295.13c2.58.65,8.43-.12,11.43-2.38,3.5-2.63,4.21-7.52,3.51-8.51-1-1.46-5.66-1.61-9.16,1a28,28,0,0,0-5.78,7.1l-.18-10.77a15.43,15.43,0,0,0,6.85-2.81c2.39-1.8,2.88-5.13,2.4-5.81-.71-1-3.86-1.1-6.25.7a17.16,17.16,0,0,0-3.07,3.16l-.08-5.69a7.08,7.08,0,0,0,2.48-5.84c-.13-2.14-2.18-4.76-2.77-4.85-.87-.11-2.38,2.41-2.61,4.54s.64,3.65,1.93,6.06l-.21,5.42a16.68,16.68,0,0,0-1.8-3.79c-1.68-2.47-5-3.13-5.68-2.69-1,.66-1.3,3.8.38,6.27s5.25,5.53,6.91,5.1l-.23,11.87c-.7-2.19-1.86-7.71-2.92-9.27-2.45-3.62-9.06-4.43-9.61-4.29-1.73.46-.61,5.92,1.84,9.55s8.13,6.92,10.46,6l-.3,14.3c-.78-2.16-2-8.51-3-10-2.78-4.12-8.29-5.22-9.45-4.48-1.72,1.09-2.15,6.32.63,10.44,2.56,3.78,8.56,6.66,11.4,8.29l-.5,11.35h3.87l-.39-12.17c3,.54,9.59-1,12.91-3.45C132,306.44,132.79,300.89,132,299.77Z"/><g class="cls-42"><path class="cls-43" d="M114.74,271.14l.09,5.69-.07,1.5a10.6,10.6,0,0,1-.27-2c0-1,0-5.19,0-5.19Z"/><polygon class="cls-43" points="114.47 281.29 114.65 293.67 115.03 292.36 114.85 281.59 114.47 281.29"/><polygon class="cls-43" points="115.18 309.66 114.75 310.99 114.65 294.96 115.03 295.13 115.18 309.66"/><polygon class="cls-43" points="114.83 312.83 114.57 325.06 115.49 325.06 115.1 312.89 114.83 312.83"/></g><path class="cls-2" d="M271.65,366.76a2.37,2.37,0,0,1-2.37,2.37H149.49a2.37,2.37,0,0,1-2.36-2.37h0a2.36,2.36,0,0,1,2.36-2.36H269.28a2.37,2.37,0,0,1,2.37,2.36Z"/><polygon class="cls-4" points="257.96 356.42 273.57 361.74 257.96 367.06 257.96 356.42"/><polygon class="cls-7" points="266.74 364.07 266.74 359.41 273.57 361.74 266.74 364.07"/><path class="cls-22" d="M258,356.42H150.71a5.32,5.32,0,0,0,0,10.64H258Z"/><path class="cls-23" d="M145.39,361.74a5.32,5.32,0,0,0,5.32,5.32H258v-5.32Z"/><path class="cls-2" d="M432.83,356.8c0,6.81-32.59,12.33-72.79,12.33s-72.8-5.52-72.8-12.33,32.59-12.33,72.8-12.33S432.83,350,432.83,356.8Z"/><path class="cls-44" d="M395,331.77H286.32v27.66H395a11.21,11.21,0,0,0,11.21-11.21V343A11.21,11.21,0,0,0,395,331.77Z"/><rect class="cls-4" x="286.32" y="337.06" width="112.64" height="17.08"/><rect class="cls-5" x="286.32" y="337.06" width="112.64" height="2.54"/><rect class="cls-5" x="395.31" y="337.06" width="3.65" height="17.08"/><polygon class="cls-5" points="294.53 343.49 379.52 344.13 294.53 344.78 294.53 343.49"/><polygon class="cls-5" points="292.08 348.53 337.45 349 292.08 349.48 292.08 348.53"/><path class="cls-5" d="M344.3,349s.49-.06,1.36-.12,2.1-.18,3.58-.25c3-.16,6.93-.27,10.88-.28s7.92.11,10.88.28c1.49.07,2.72.19,3.59.24S376,349,376,349s-.5.06-1.36.13-2.1.17-3.59.24c-3,.17-6.92.28-10.88.28s-7.91-.11-10.88-.28c-1.48-.07-2.72-.19-3.58-.24S344.3,349,344.3,349Z"/><path class="cls-45" d="M407.83,310.49H323.41V332h84.42a8.7,8.7,0,0,0,8.71-8.71v-4.06A8.71,8.71,0,0,0,407.83,310.49Z"/><rect class="cls-4" x="323.41" y="314.61" width="87.51" height="13.27"/><rect class="cls-5" x="323.41" y="314.61" width="87.51" height="1.97"/><rect class="cls-5" x="408.09" y="314.61" width="2.83" height="13.27"/><polygon class="cls-5" points="328.98 319.6 366.69 320.1 328.98 320.61 328.98 319.6"/><polygon class="cls-5" points="327.89 323.52 348.02 323.88 327.89 324.25 327.89 323.52"/><path class="cls-5" d="M351.07,323.88l.6-.09c.38-.05.93-.14,1.59-.19,1.32-.13,3.07-.22,4.83-.22s3.51.09,4.83.21c.66.06,1.2.15,1.59.19l.6.1s-.22.05-.6.1-.93.14-1.59.19c-1.32.13-3.08.22-4.83.22s-3.51-.09-4.83-.22c-.66-.05-1.21-.15-1.59-.19S351.07,323.88,351.07,323.88Z"/><polygon class="cls-5" points="363.78 321.43 399.99 321.44 363.78 322.73 363.78 321.43"/><path class="cls-5" d="M388.59,324.83s.24-.05.66-.1,1-.13,1.75-.19c1.45-.13,3.38-.21,5.31-.22s3.86.09,5.3.22c.73,0,1.33.15,1.75.19s.66.1.66.1l-.66.1c-.42,0-1,.13-1.75.19-1.44.13-3.37.21-5.3.21s-3.86-.09-5.31-.21c-.72-.06-1.32-.15-1.75-.19Z"/><path class="cls-46" d="M401,289.26H316.56v21.48H401a8.71,8.71,0,0,0,8.71-8.71V298A8.7,8.7,0,0,0,401,289.26Z"/><rect class="cls-4" x="316.56" y="293.37" width="87.51" height="13.27"/><rect class="cls-5" x="316.56" y="293.37" width="87.51" height="1.97"/><rect class="cls-5" x="401.23" y="293.37" width="2.83" height="13.27"/><polygon class="cls-5" points="321.91 298.36 352.13 298.86 321.91 299.37 321.91 298.36"/><polygon class="cls-5" points="321.04 302.28 337.17 302.64 321.04 303.01 321.04 302.28"/><path class="cls-5" d="M339.61,302.64l.48-.09c.31-.05.75-.14,1.27-.19a33.48,33.48,0,0,1,3.87-.22,35.8,35.8,0,0,1,3.87.21c.53.06,1,.15,1.28.19l.48.1s-.18.05-.48.1-.75.14-1.28.19a33.21,33.21,0,0,1-3.87.22,35.88,35.88,0,0,1-3.87-.22c-.52-.05-1-.15-1.27-.19A4.32,4.32,0,0,1,339.61,302.64Z"/><polygon class="cls-5" points="357.47 298.47 398.91 298.97 357.47 299.48 357.47 298.47"/><polygon class="cls-5" points="356.27 302.38 378.4 302.75 356.27 303.12 356.27 302.38"/><path class="cls-5" d="M381.74,302.75l.66-.1c.42,0,1-.13,1.75-.18,1.45-.13,3.38-.22,5.31-.22s3.85.08,5.3.21c.72.06,1.33.15,1.75.19l.66.1s-.24.05-.66.1-1,.14-1.75.19c-1.45.13-3.38.21-5.3.22s-3.86-.09-5.31-.22c-.72-.06-1.33-.14-1.75-.19S381.74,302.75,381.74,302.75Z"/><rect class="cls-47" x="324.9" y="330.89" width="73.78" height="1.1"/></g></g></svg>